<svg width="237" height="27" xmlns="http://www.w3.org/2000/svg">

 <g>
  <title>background</title>
  <rect fill="none" id="canvas_background" height="602" width="802" y="-1" x="-1"/>
 </g>
 <g>
  <title>Layer 1</title>
  <g id="svg_1" fill="none" fill-rule="nonzero">
   <path id="svg_2" fill="#ffffff" d="m40.237,24.95c1.304,0 2.444,-0.237 3.422,-0.71c0.978,-0.474 1.755,-1.124 2.331,-1.95c0.576,-0.827 0.907,-1.78 0.994,-2.86c0.011,-0.199 -0.019,-0.345 -0.09,-0.438a0.374,0.374 0 0 0 -0.268,-0.157a0.623,0.623 0 0 0 -0.27,0.066c-0.092,0.044 -0.22,0.143 -0.382,0.297c-0.294,0.562 -0.712,0.962 -1.255,1.199c-0.544,0.237 -1.217,0.355 -2.021,0.355c-0.804,0 -1.521,-0.21 -2.152,-0.628c-0.63,-0.419 -1.127,-1.047 -1.491,-1.884c-0.364,-0.838 -0.546,-1.874 -0.546,-3.108c0,-0.86 0.079,-1.581 0.236,-2.165c0.158,-0.584 0.38,-1.022 0.669,-1.314c0.287,-0.292 0.61,-0.438 0.97,-0.438c0.358,0 0.635,0.138 0.83,0.413c0.196,0.276 0.294,0.683 0.294,1.223l0,1.058c0,0.893 0.23,1.595 0.693,2.108c0.461,0.512 1.138,0.768 2.029,0.768c0.87,0 1.556,-0.25 2.062,-0.752c0.505,-0.501 0.757,-1.193 0.757,-2.074c0,-0.838 -0.241,-1.595 -0.725,-2.273c-0.483,-0.678 -1.184,-1.215 -2.102,-1.612c-0.919,-0.396 -2.046,-0.595 -3.382,-0.595c-1.565,0 -2.934,0.35 -4.108,1.05a7.38,7.38 0 0 0 -2.746,2.86c-0.656,1.205 -0.986,2.574 -0.986,4.106c0,1.587 0.315,2.934 0.945,4.041a6.4,6.4 0 0 0 2.584,2.537c1.092,0.584 2.328,0.876 3.708,0.876l0,0.001zm15.728,-0.033c1.619,0 3.04,-0.336 4.262,-1.008c1.222,-0.672 2.179,-1.584 2.869,-2.735c0.69,-1.152 1.034,-2.455 1.034,-3.91c0,-1.531 -0.33,-2.881 -0.994,-4.05a7.107,7.107 0 0 0 -2.77,-2.743c-1.185,-0.661 -2.57,-0.992 -4.157,-0.992c-1.597,0 -3.01,0.342 -4.237,1.025c-1.228,0.683 -2.19,1.606 -2.885,2.769c-0.696,1.162 -1.043,2.47 -1.043,3.925c0,1.521 0.331,2.86 0.994,4.017a7.067,7.067 0 0 0 2.779,2.719c1.19,0.656 2.572,0.983 4.148,0.983zm1.239,-1.719c-0.337,0.066 -0.666,-0.082 -0.987,-0.446c-0.32,-0.364 -0.624,-0.975 -0.912,-1.835c-0.288,-0.86 -0.563,-1.989 -0.823,-3.388c-0.25,-1.4 -0.392,-2.551 -0.424,-3.455c-0.033,-0.903 0.032,-1.586 0.195,-2.05c0.163,-0.462 0.413,-0.732 0.75,-0.81c0.337,-0.065 0.666,0.084 0.986,0.447c0.32,0.364 0.628,0.975 0.921,1.835c0.294,0.86 0.57,1.989 0.831,3.388c0.261,1.4 0.405,2.554 0.432,3.463c0.027,0.91 -0.043,1.595 -0.212,2.058c-0.168,0.463 -0.42,0.727 -0.757,0.793zm17.781,1.422c0.511,0 0.766,-0.254 0.766,-0.76c0,-0.22 -0.06,-0.394 -0.179,-0.521c-0.12,-0.127 -0.304,-0.207 -0.554,-0.24l-1.402,-0.215a0.589,0.589 0 0 1 -0.448,-0.297c-0.092,-0.166 -0.138,-0.402 -0.138,-0.711l0,-10.297l1.157,0c0.608,0 1.054,-0.105 1.336,-0.315c0.283,-0.209 0.424,-0.479 0.424,-0.81c0,-0.22 -0.068,-0.382 -0.204,-0.487c-0.136,-0.105 -0.328,-0.157 -0.578,-0.157l-2.415,0l-0.015,-0.087a1.998,1.998 0 0 0 -0.264,-0.64l-0.07,-0.108a8.286,8.286 0 0 0 -0.905,-1.09a36.96,36.96 0 0 1 -1.075,-1.158a6.526,6.526 0 0 1 -0.905,-1.297a3.138,3.138 0 0 1 -0.367,-1.488c0,-0.518 0.104,-0.914 0.31,-1.19c0.207,-0.275 0.51,-0.413 0.913,-0.413c0.315,0 0.549,0.09 0.7,0.273c0.153,0.181 0.229,0.465 0.229,0.85l0,1.472c0,0.837 0.239,1.51 0.717,2.016c0.478,0.507 1.108,0.76 1.89,0.76c0.707,0 1.286,-0.217 1.736,-0.652c0.451,-0.435 0.677,-1.088 0.677,-1.959c0,-0.738 -0.19,-1.419 -0.57,-2.041c-0.38,-0.623 -0.954,-1.121 -1.72,-1.496s-1.729,-0.562 -2.892,-0.562c-1.804,0 -3.195,0.433 -4.173,1.298c-0.977,0.865 -1.466,2.019 -1.466,3.462c0,0.606 0.081,1.116 0.244,1.53c0.163,0.412 0.348,0.768 0.554,1.065l0.554,0.802c0.123,0.178 0.199,0.363 0.23,0.556l0.01,0.097l-1.43,0a0.83,0.83 0 0 0 -0.508,0.145l-0.054,0.045a0.637,0.637 0 0 0 -0.203,0.488c0,0.198 0.054,0.366 0.162,0.504c0.11,0.137 0.288,0.267 0.538,0.388l0.946,0.314c0.206,0.088 0.347,0.185 0.423,0.29a0.643,0.643 0 0 1 0.115,0.388l0,9.554c0,0.286 -0.05,0.507 -0.147,0.66a0.73,0.73 0 0 1 -0.408,0.315l-0.7,0.215a0.978,0.978 0 0 0 -0.432,0.297a0.77,0.77 0 0 0 -0.139,0.48c0,0.231 0.068,0.41 0.204,0.537c0.136,0.126 0.312,0.19 0.53,0.19l8.996,0zm11.377,0c0.51,0 0.766,-0.254 0.766,-0.76c0,-0.22 -0.06,-0.394 -0.18,-0.521c-0.119,-0.127 -0.304,-0.207 -0.554,-0.24l-1.401,-0.215a0.589,0.589 0 0 1 -0.448,-0.297c-0.093,-0.166 -0.139,-0.402 -0.139,-0.711l0,-10.297l1.157,0c0.609,0 1.054,-0.105 1.337,-0.315c0.282,-0.209 0.423,-0.479 0.423,-0.81c0,-0.22 -0.067,-0.382 -0.203,-0.487c-0.136,-0.105 -0.329,-0.157 -0.579,-0.157l-2.414,0l-0.015,-0.087a1.998,1.998 0 0 0 -0.264,-0.64l-0.07,-0.108a8.286,8.286 0 0 0 -0.904,-1.09a36.96,36.96 0 0 1 -1.076,-1.158a6.526,6.526 0 0 1 -0.904,-1.297a3.138,3.138 0 0 1 -0.367,-1.488c0,-0.518 0.103,-0.914 0.31,-1.19c0.206,-0.275 0.51,-0.413 0.912,-0.413c0.315,0 0.55,0.09 0.701,0.273c0.152,0.181 0.228,0.465 0.228,0.85l0,1.472c0,0.837 0.24,1.51 0.718,2.016c0.478,0.507 1.108,0.76 1.89,0.76c0.706,0 1.285,-0.217 1.736,-0.652c0.45,-0.435 0.676,-1.088 0.676,-1.959c0,-0.738 -0.19,-1.419 -0.57,-2.041c-0.38,-0.623 -0.954,-1.121 -1.72,-1.496s-1.73,-0.562 -2.893,-0.562c-1.803,0 -3.194,0.433 -4.172,1.298c-0.978,0.865 -1.467,2.019 -1.467,3.462c0,0.606 0.082,1.116 0.245,1.53c0.163,0.412 0.347,0.768 0.554,1.065l0.554,0.802c0.122,0.178 0.198,0.363 0.229,0.556l0.011,0.097l-1.43,0a0.83,0.83 0 0 0 -0.509,0.145l-0.053,0.045a0.637,0.637 0 0 0 -0.204,0.488c0,0.198 0.054,0.366 0.163,0.504c0.109,0.137 0.288,0.267 0.538,0.388l0.945,0.314c0.207,0.088 0.348,0.185 0.424,0.29a0.643,0.643 0 0 1 0.114,0.388l0,9.554c0,0.286 -0.049,0.507 -0.147,0.66a0.73,0.73 0 0 1 -0.407,0.315l-0.701,0.215a0.978,0.978 0 0 0 -0.432,0.297a0.77,0.77 0 0 0 -0.138,0.48c0,0.231 0.067,0.41 0.203,0.537c0.136,0.126 0.313,0.19 0.53,0.19l8.997,0zm9.11,0.33c1.38,0 2.598,-0.27 3.652,-0.81c1.054,-0.54 1.874,-1.258 2.46,-2.157c0.588,-0.898 0.881,-1.887 0.881,-2.966c0,-0.21 -0.038,-0.359 -0.114,-0.447a0.353,0.353 0 0 0 -0.277,-0.132a0.64,0.64 0 0 0 -0.27,0.074c-0.102,0.05 -0.22,0.146 -0.35,0.29c-0.228,0.705 -0.676,1.256 -1.344,1.653c-0.668,0.396 -1.437,0.595 -2.306,0.595c-1.359,0 -2.445,-0.466 -3.26,-1.397c-0.478,-0.546 -0.816,-1.273 -1.013,-2.18l-0.016,-0.076l7.45,0c0.472,0 0.841,-0.125 1.11,-0.374l0.064,-0.064c0.272,-0.292 0.407,-0.692 0.407,-1.199c0,-1.168 -0.274,-2.228 -0.823,-3.181c-0.548,-0.954 -1.333,-1.708 -2.355,-2.265c-1.021,-0.556 -2.238,-0.835 -3.65,-0.835c-1.663,0 -3.087,0.33 -4.271,0.992a6.684,6.684 0 0 0 -2.714,2.769c-0.624,1.184 -0.937,2.564 -0.937,4.14c0,1.499 0.323,2.818 0.97,3.959a6.821,6.821 0 0 0 2.697,2.661c1.152,0.634 2.489,0.95 4.01,0.95l-0.001,0zm-2.127,-8.878a12.966,12.966 0 0 1 -0.024,-0.791c0,-1.036 0.076,-1.851 0.229,-2.446c0.152,-0.595 0.347,-1.017 0.586,-1.265c0.24,-0.248 0.506,-0.372 0.799,-0.372c0.38,0 0.736,0.325 1.068,0.976c0.33,0.65 0.497,1.73 0.497,3.24c0,0.462 -0.207,0.693 -0.62,0.693l-2.533,0l-0.002,-0.035zm17.71,8.878c1.38,0 2.596,-0.27 3.65,-0.81c1.054,-0.54 1.875,-1.258 2.461,-2.157c0.587,-0.898 0.88,-1.887 0.88,-2.966c0,-0.21 -0.038,-0.359 -0.114,-0.447a0.353,0.353 0 0 0 -0.277,-0.132a0.64,0.64 0 0 0 -0.269,0.074c-0.103,0.05 -0.22,0.146 -0.35,0.29c-0.228,0.705 -0.676,1.256 -1.345,1.653c-0.668,0.396 -1.437,0.595 -2.306,0.595c-1.358,0 -2.445,-0.466 -3.26,-1.397c-0.477,-0.546 -0.815,-1.273 -1.013,-2.18l-0.016,-0.076l7.451,0c0.471,0 0.841,-0.125 1.109,-0.374l0.065,-0.064c0.271,-0.292 0.407,-0.692 0.407,-1.199c0,-1.168 -0.274,-2.228 -0.823,-3.181c-0.549,-0.954 -1.334,-1.708 -2.355,-2.265c-1.022,-0.556 -2.239,-0.835 -3.651,-0.835c-1.663,0 -3.086,0.33 -4.27,0.992a6.684,6.684 0 0 0 -2.714,2.769c-0.625,1.184 -0.937,2.564 -0.937,4.14c0,1.499 0.323,2.818 0.97,3.959a6.821,6.821 0 0 0 2.696,2.661c1.152,0.634 2.488,0.95 4.01,0.95l0.001,0zm-2.129,-8.878a12.966,12.966 0 0 1 -0.023,-0.791c0,-1.036 0.076,-1.851 0.228,-2.446c0.152,-0.595 0.348,-1.017 0.587,-1.265s0.505,-0.372 0.798,-0.372c0.38,0 0.737,0.325 1.068,0.976c0.331,0.65 0.497,1.73 0.497,3.24c0,0.462 -0.206,0.693 -0.62,0.693l-2.533,0l-0.002,-0.035zm19.079,8.548c0.26,0 0.46,-0.069 0.595,-0.207a0.732,0.732 0 0 0 0.204,-0.537a0.82,0.82 0 0 0 -0.147,-0.488c-0.098,-0.137 -0.26,-0.223 -0.489,-0.256l-1.222,-0.248a0.647,0.647 0 0 1 -0.457,-0.339c-0.098,-0.181 -0.146,-0.427 -0.146,-0.735l0,-5.818c0,-0.65 0.038,-1.185 0.114,-1.604c0.076,-0.418 0.187,-0.73 0.334,-0.933c0.146,-0.204 0.318,-0.306 0.513,-0.306c0.196,0 0.337,0.071 0.424,0.215c0.087,0.143 0.136,0.341 0.147,0.595l0.016,0.66c0.022,0.75 0.225,1.329 0.611,1.736c0.386,0.408 0.98,0.612 1.785,0.612c0.826,0 1.5,-0.298 2.02,-0.893c0.522,-0.595 0.783,-1.526 0.783,-2.793c0,-1.278 -0.25,-2.231 -0.75,-2.86c-0.5,-0.628 -1.217,-0.942 -2.151,-0.942c-0.771,0 -1.483,0.24 -2.135,0.72c-0.652,0.479 -1.176,1.211 -1.573,2.198a6.529,6.529 0 0 0 -0.182,0.515l-0.028,0.094l-0.124,-2.568c-0.029,-0.304 -0.082,-0.525 -0.158,-0.663l-0.03,-0.048c-0.092,-0.132 -0.23,-0.198 -0.415,-0.198c-0.13,0 -0.288,0.022 -0.473,0.066a4.95,4.95 0 0 0 -0.684,0.231l-4.63,1.34c-0.26,0.098 -0.445,0.217 -0.553,0.355a0.74,0.74 0 0 0 -0.163,0.47a0.64,0.64 0 0 0 0.106,0.38c0.07,0.1 0.182,0.194 0.334,0.282l0.424,0.05a0.618,0.618 0 0 1 0.301,0.272c0.06,0.116 0.09,0.306 0.09,0.57l0,8.397c0,0.33 -0.027,0.568 -0.082,0.71a0.552,0.552 0 0 1 -0.293,0.315l-0.375,0.149c-0.141,0.099 -0.253,0.206 -0.334,0.322a0.743,0.743 0 0 0 -0.122,0.438c0,0.231 0.068,0.413 0.203,0.545c0.136,0.133 0.324,0.199 0.563,0.199l8.149,0zm13.626,0.297c1.619,0 3.04,-0.336 4.262,-1.008c1.222,-0.672 2.178,-1.584 2.868,-2.735c0.69,-1.152 1.035,-2.455 1.035,-3.91c0,-1.531 -0.331,-2.881 -0.994,-4.05a7.107,7.107 0 0 0 -2.77,-2.743c-1.185,-0.661 -2.57,-0.992 -4.157,-0.992c-1.597,0 -3.01,0.342 -4.238,1.025c-1.227,0.683 -2.189,1.606 -2.884,2.769c-0.696,1.162 -1.043,2.47 -1.043,3.925c0,1.521 0.33,2.86 0.994,4.017a7.067,7.067 0 0 0 2.779,2.719c1.19,0.656 2.572,0.983 4.148,0.983zm1.238,-1.719c-0.336,0.066 -0.665,-0.082 -0.986,-0.446c-0.32,-0.364 -0.624,-0.975 -0.912,-1.835c-0.288,-0.86 -0.563,-1.989 -0.824,-3.388c-0.25,-1.4 -0.39,-2.551 -0.423,-3.455c-0.033,-0.903 0.032,-1.586 0.195,-2.05c0.163,-0.462 0.413,-0.732 0.75,-0.81c0.337,-0.065 0.666,0.084 0.986,0.447c0.32,0.364 0.628,0.975 0.921,1.835c0.293,0.86 0.57,1.989 0.831,3.388c0.261,1.4 0.405,2.554 0.432,3.463c0.027,0.91 -0.043,1.595 -0.212,2.058c-0.168,0.463 -0.42,0.727 -0.758,0.793zm19.852,1.752c0.913,0 1.663,-0.168 2.25,-0.504c0.586,-0.336 1.023,-0.735 1.311,-1.198c0.288,-0.463 0.432,-0.887 0.432,-1.273a0.751,0.751 0 0 0 -0.106,-0.413a0.324,0.324 0 0 0 -0.285,-0.165a0.32,0.32 0 0 0 -0.147,0.033a0.325,0.325 0 0 0 -0.114,0.099c-0.054,0.198 -0.138,0.336 -0.252,0.413a0.643,0.643 0 0 1 -0.367,0.116c-0.185,0 -0.323,-0.064 -0.416,-0.19c-0.092,-0.127 -0.138,-0.295 -0.138,-0.504l0,-7.306c0,-1.455 -0.492,-2.581 -1.475,-3.38c-0.984,-0.8 -2.524,-1.199 -4.62,-1.199c-1.63,0 -2.992,0.204 -4.084,0.612c-1.092,0.408 -1.912,0.928 -2.46,1.562c-0.55,0.634 -0.824,1.28 -0.824,1.942c0,0.705 0.204,1.242 0.611,1.612c0.408,0.369 0.997,0.553 1.769,0.553c0.945,0 1.69,-0.256 2.233,-0.768c0.543,-0.513 0.815,-1.177 0.815,-1.992l0,-1.256c0,-0.309 0.095,-0.548 0.285,-0.72c0.19,-0.17 0.426,-0.255 0.709,-0.255c0.304,0 0.546,0.113 0.725,0.338c0.18,0.226 0.27,0.532 0.27,0.918l-0.001,4.818l-0.087,-0.019a5.455,5.455 0 0 0 -0.91,-0.087l-0.176,-0.001c-2.337,0 -4.078,0.396 -5.224,1.19c-1.146,0.793 -1.72,1.9 -1.72,3.322c0,1.08 0.394,1.967 1.182,2.661c0.788,0.694 1.834,1.041 3.137,1.041c0.978,0 1.891,-0.2 2.739,-0.603c0.635,-0.302 1.152,-0.698 1.55,-1.188l0.022,-0.03l0.024,0.075c0.125,0.357 0.354,0.677 0.688,0.96l0.103,0.084c0.603,0.468 1.454,0.702 2.551,0.702zm-4.563,-2.578c-0.435,0 -0.786,-0.18 -1.052,-0.537c-0.266,-0.358 -0.4,-0.907 -0.4,-1.645c0,-0.771 0.129,-1.355 0.384,-1.752s0.595,-0.595 1.019,-0.595c0.25,0 0.467,0.025 0.652,0.074l0.08,0.025l0,4.242l-0.052,0.03c-0.174,0.09 -0.353,0.142 -0.538,0.155l-0.093,0.003zm16.054,2.628c1.934,0 3.417,-0.446 4.45,-1.339c1.032,-0.892 1.548,-2.11 1.548,-3.653c0,-0.936 -0.174,-1.757 -0.522,-2.463c-0.348,-0.705 -0.956,-1.33 -1.825,-1.876c-0.87,-0.545 -2.092,-1.06 -3.668,-1.545c-0.586,-0.187 -1.04,-0.377 -1.36,-0.57c-0.321,-0.193 -0.541,-0.4 -0.66,-0.62c-0.12,-0.22 -0.18,-0.457 -0.18,-0.71c0,-0.376 0.136,-0.679 0.408,-0.91c0.271,-0.231 0.673,-0.347 1.206,-0.347c0.739,0 1.437,0.248 2.094,0.744c0.657,0.496 1.383,1.344 2.176,2.545c0.206,0.254 0.413,0.438 0.62,0.554c0.206,0.116 0.401,0.151 0.586,0.107a0.574,0.574 0 0 0 0.424,-0.454c0.054,-0.237 0.043,-0.576 -0.033,-1.017l-0.424,-3.041c-0.043,-0.32 -0.125,-0.545 -0.244,-0.678a0.607,0.607 0 0 0 -0.473,-0.198c-0.174,0 -0.39,0.06 -0.652,0.182c-0.26,0.121 -0.519,0.245 -0.774,0.372c-0.255,0.126 -0.448,0.19 -0.578,0.19c-0.12,0 -0.297,-0.066 -0.53,-0.199c-0.234,-0.132 -0.562,-0.264 -0.986,-0.396c-0.424,-0.133 -0.973,-0.199 -1.646,-0.199c-1.12,0 -2.127,0.204 -3.024,0.612c-0.896,0.408 -1.603,0.989 -2.119,1.744c-0.516,0.755 -0.774,1.655 -0.774,2.702c0,0.926 0.193,1.736 0.579,2.43c0.386,0.694 0.975,1.29 1.768,1.785c0.793,0.496 1.793,0.898 3,1.207c0.781,0.209 1.382,0.421 1.8,0.636c0.418,0.215 0.706,0.45 0.864,0.703c0.158,0.253 0.236,0.534 0.236,0.842c0,0.408 -0.136,0.744 -0.407,1.009c-0.272,0.264 -0.685,0.396 -1.239,0.396a3.417,3.417 0 0 1 -1.491,-0.338c-0.473,-0.226 -0.96,-0.615 -1.459,-1.166c-0.5,-0.55 -1.06,-1.305 -1.679,-2.264c-0.184,-0.254 -0.394,-0.43 -0.627,-0.53a0.84,0.84 0 0 0 -0.71,0.017c-0.227,0.089 -0.374,0.276 -0.44,0.562c-0.064,0.287 -0.048,0.64 0.05,1.058l0.505,3.29c0.076,0.33 0.185,0.55 0.326,0.66c0.141,0.11 0.293,0.166 0.456,0.166c0.185,0 0.41,-0.06 0.677,-0.182l0.798,-0.363c0.267,-0.122 0.481,-0.182 0.644,-0.182c0.163,0 0.378,0.06 0.644,0.182a7.51,7.51 0 0 0 1.043,0.363c0.43,0.121 0.97,0.182 1.622,0.182zm12.908,-0.05c0.978,0 1.826,-0.19 2.543,-0.57a4.366,4.366 0 0 0 1.703,-1.587c0.418,-0.677 0.666,-1.462 0.742,-2.355c0.01,-0.253 -0.025,-0.421 -0.106,-0.504a0.242,0.242 0 0 0 -0.286,-0.058c-0.13,0.198 -0.266,0.397 -0.407,0.595c-0.141,0.198 -0.29,0.377 -0.448,0.537c-0.158,0.16 -0.334,0.29 -0.53,0.389c-0.195,0.099 -0.407,0.148 -0.636,0.148c-0.532,0 -0.937,-0.198 -1.214,-0.595c-0.277,-0.396 -0.415,-1.008 -0.415,-1.834l0,-7.537l2.444,0c0.555,0 0.97,-0.096 1.244,-0.286l0.06,-0.045c0.272,-0.22 0.408,-0.485 0.408,-0.793c0,-0.22 -0.065,-0.383 -0.196,-0.488c-0.13,-0.105 -0.315,-0.157 -0.554,-0.157l-3.407,0l0,-2.96c0,-0.294 -0.055,-0.518 -0.167,-0.672l-0.044,-0.055c-0.142,-0.154 -0.337,-0.231 -0.587,-0.231a1.21,1.21 0 0 0 -0.652,0.206a2.83,2.83 0 0 0 -0.652,0.603l-3.015,2.53c-0.185,0.23 -0.332,0.385 -0.44,0.462a0.541,0.541 0 0 1 -0.31,0.116l-0.799,0a0.861,0.861 0 0 0 -0.603,0.223a0.738,0.738 0 0 0 -0.244,0.57c0,0.188 0.027,0.345 0.081,0.471c0.055,0.127 0.174,0.235 0.359,0.323l0.766,0.248c0.174,0.077 0.283,0.176 0.326,0.297c0.043,0.121 0.065,0.298 0.065,0.53l0,7.47c0,1.73 0.416,2.997 1.247,3.802c0.831,0.804 2.073,1.206 3.724,1.206l0,0.001zm13.218,0c1.38,0 2.597,-0.27 3.651,-0.81c1.054,-0.54 1.875,-1.258 2.462,-2.157c0.586,-0.898 0.88,-1.887 0.88,-2.966c0,-0.21 -0.038,-0.359 -0.114,-0.447a0.353,0.353 0 0 0 -0.278,-0.132a0.64,0.64 0 0 0 -0.268,0.074c-0.104,0.05 -0.22,0.146 -0.35,0.29c-0.23,0.705 -0.677,1.256 -1.346,1.653c-0.668,0.396 -1.437,0.595 -2.306,0.595c-1.358,0 -2.445,-0.466 -3.26,-1.397c-0.477,-0.546 -0.815,-1.273 -1.013,-2.18l-0.016,-0.076l7.451,0c0.472,0 0.841,-0.125 1.109,-0.374l0.065,-0.064c0.271,-0.292 0.407,-0.692 0.407,-1.199c0,-1.168 -0.274,-2.228 -0.823,-3.181c-0.549,-0.954 -1.334,-1.708 -2.355,-2.265c-1.022,-0.556 -2.238,-0.835 -3.651,-0.835c-1.662,0 -3.086,0.33 -4.27,0.992a6.684,6.684 0 0 0 -2.714,2.769c-0.625,1.184 -0.937,2.564 -0.937,4.14c0,1.499 0.323,2.818 0.97,3.959a6.821,6.821 0 0 0 2.697,2.661c1.152,0.634 2.488,0.95 4.01,0.95l-0.001,0zm-2.128,-8.878a12.966,12.966 0 0 1 -0.023,-0.791c0,-1.036 0.076,-1.851 0.228,-2.446c0.152,-0.595 0.348,-1.017 0.587,-1.265c0.24,-0.248 0.505,-0.372 0.799,-0.372c0.38,0 0.736,0.325 1.067,0.976c0.332,0.65 0.497,1.73 0.497,3.24c0,0.462 -0.206,0.693 -0.619,0.693l-2.534,0l-0.002,-0.035zm19.08,8.548c0.26,0 0.458,-0.069 0.594,-0.207a0.732,0.732 0 0 0 0.204,-0.537a0.82,0.82 0 0 0 -0.147,-0.488c-0.098,-0.137 -0.26,-0.223 -0.489,-0.256l-1.222,-0.248a0.647,0.647 0 0 1 -0.457,-0.339c-0.097,-0.181 -0.146,-0.427 -0.146,-0.735l0,-5.818c0,-0.65 0.038,-1.185 0.114,-1.604c0.076,-0.418 0.187,-0.73 0.334,-0.933c0.147,-0.204 0.318,-0.306 0.513,-0.306c0.196,0 0.337,0.071 0.424,0.215c0.087,0.143 0.136,0.341 0.147,0.595l0.016,0.66c0.022,0.75 0.225,1.329 0.611,1.736c0.386,0.408 0.98,0.612 1.785,0.612c0.826,0 1.5,-0.298 2.021,-0.893c0.522,-0.595 0.782,-1.526 0.782,-2.793c0,-1.278 -0.25,-2.231 -0.75,-2.86c-0.5,-0.628 -1.216,-0.942 -2.15,-0.942c-0.772,0 -1.484,0.24 -2.136,0.72c-0.652,0.479 -1.176,1.211 -1.573,2.198a6.529,6.529 0 0 0 -0.182,0.515l-0.028,0.095l-0.124,-2.569c-0.029,-0.304 -0.081,-0.525 -0.158,-0.663l-0.03,-0.048c-0.092,-0.132 -0.23,-0.198 -0.415,-0.198c-0.13,0 -0.288,0.022 -0.473,0.066a4.95,4.95 0 0 0 -0.684,0.231l-4.629,1.34c-0.26,0.098 -0.446,0.217 -0.554,0.355a0.74,0.74 0 0 0 -0.163,0.47a0.64,0.64 0 0 0 0.106,0.38c0.07,0.1 0.182,0.194 0.334,0.282l0.424,0.05a0.618,0.618 0 0 1 0.301,0.272c0.06,0.116 0.09,0.306 0.09,0.57l0,8.397c0,0.33 -0.027,0.568 -0.082,0.71a0.552,0.552 0 0 1 -0.293,0.315l-0.375,0.149c-0.141,0.099 -0.253,0.206 -0.334,0.322a0.743,0.743 0 0 0 -0.122,0.438c0,0.231 0.068,0.413 0.203,0.545c0.136,0.133 0.324,0.199 0.563,0.199l8.15,0zm12.712,0.38c1.934,0 3.417,-0.446 4.45,-1.339c1.032,-0.892 1.548,-2.11 1.548,-3.653c0,-0.936 -0.174,-1.757 -0.522,-2.463c-0.347,-0.705 -0.956,-1.33 -1.825,-1.876c-0.87,-0.545 -2.092,-1.06 -3.667,-1.545c-0.587,-0.187 -1.04,-0.377 -1.361,-0.57c-0.32,-0.193 -0.54,-0.4 -0.66,-0.62c-0.12,-0.22 -0.18,-0.457 -0.18,-0.71c0,-0.376 0.136,-0.679 0.408,-0.91c0.272,-0.231 0.674,-0.347 1.206,-0.347c0.739,0 1.437,0.248 2.094,0.744c0.658,0.496 1.383,1.344 2.176,2.545c0.207,0.254 0.413,0.438 0.62,0.554c0.206,0.116 0.402,0.151 0.586,0.107a0.574,0.574 0 0 0 0.424,-0.454c0.054,-0.237 0.044,-0.576 -0.032,-1.017l-0.424,-3.041c-0.044,-0.32 -0.125,-0.545 -0.245,-0.678a0.607,0.607 0 0 0 -0.472,-0.198c-0.174,0 -0.392,0.06 -0.652,0.182c-0.261,0.121 -0.52,0.245 -0.774,0.372c-0.256,0.126 -0.449,0.19 -0.58,0.19c-0.119,0 -0.295,-0.066 -0.529,-0.199c-0.233,-0.132 -0.562,-0.264 -0.986,-0.396c-0.424,-0.133 -0.972,-0.199 -1.646,-0.199c-1.12,0 -2.127,0.204 -3.023,0.612c-0.897,0.408 -1.603,0.989 -2.12,1.744c-0.515,0.755 -0.773,1.655 -0.773,2.702c0,0.926 0.192,1.736 0.578,2.43c0.386,0.694 0.975,1.29 1.769,1.785c0.793,0.496 1.792,0.898 2.999,1.207c0.782,0.209 1.382,0.421 1.8,0.636c0.419,0.215 0.707,0.45 0.864,0.703c0.158,0.253 0.237,0.534 0.237,0.842c0,0.408 -0.136,0.744 -0.408,1.009c-0.271,0.264 -0.684,0.396 -1.238,0.396a3.417,3.417 0 0 1 -1.492,-0.338c-0.472,-0.226 -0.959,-0.615 -1.459,-1.166c-0.5,-0.55 -1.059,-1.305 -1.678,-2.264c-0.185,-0.254 -0.394,-0.43 -0.628,-0.53a0.84,0.84 0 0 0 -0.709,0.017c-0.228,0.089 -0.375,0.276 -0.44,0.562c-0.065,0.287 -0.049,0.64 0.049,1.058l0.505,3.29c0.076,0.33 0.185,0.55 0.326,0.66c0.142,0.11 0.294,0.166 0.457,0.166c0.184,0 0.41,-0.06 0.676,-0.182l0.799,-0.363c0.266,-0.122 0.48,-0.182 0.643,-0.182c0.163,0 0.378,0.06 0.644,0.182a7.51,7.51 0 0 0 1.043,0.363c0.43,0.121 0.97,0.182 1.622,0.182z"/>
   <path id="svg_3" fill="#0e8784" d="m23.123,11.378c2.89,2.89 2.387,8.1 -1.126,11.613c-1.688,1.687 -3.813,2.74 -5.987,2.965c-0.29,0.029 -0.576,0.044 -0.856,0.044c-1.87,0 -3.539,-0.656 -4.769,-1.886c-1.416,-1.414 -2.07,-3.412 -1.839,-5.625c0.224,-2.173 1.277,-4.299 2.964,-5.986c3.515,-3.512 8.724,-4.019 11.613,-1.125zm-0.18,0.18c-0.961,1.16 -1.67,2.482 -2.851,3.453c-1.257,1.033 -2.64,1.41 -4.161,1.85c-3.338,0.97 -4.988,3.791 -5.369,7.075c1.043,-1.253 1.808,-2.657 3.125,-3.663c1.152,-0.88 2.398,-1.227 3.754,-1.598c3.411,-0.936 5.105,-3.781 5.502,-7.117zm-8.453,-6.555a10.573,10.573 0 0 1 2.165,3.151c-1.68,0.29 -3.308,0.992 -4.75,2.046a7.17,7.17 0 0 0 -1.837,-0.84c-1.519,-0.44 -2.903,-0.816 -4.16,-1.85c-1.18,-0.971 -1.889,-2.296 -2.852,-3.454c0.396,3.336 2.091,6.182 5.502,7.118c0.576,0.157 1.128,0.32 1.666,0.511c-1.626,1.713 -2.696,3.8 -3.07,5.97a10.607,10.607 0 0 1 -3.154,-2.164c-3.508,-3.513 -4.014,-8.723 -1.123,-11.613c2.889,-2.892 8.098,-2.388 11.612,1.125l0.001,0z"/>
  </g>
 </g>
</svg>